<?xml version="1.0" encoding="UTF-8"?>
<svg id="_レイヤー_6" data-name="レイヤー 6" xmlns="http://www.w3.org/2000/svg" viewBox="0 0 370 108.02">
  <defs>
    <style>
      .cls-1 {
        fill: none;
      }

      .cls-2 {
        fill: #fffcfe;
      }
    </style>
  </defs>
  <rect class="cls-1" y="-26.84" width="370" height="134.86"/>
  <path class="cls-2" d="M370,108.02H0v-28.63c16.57,0,30-13.43,30-30h310c0,16.57,13.43,30,30,30v28.63Z"/>
  <path class="cls-1" d="M185-16.11c52.29,0,94.82,42.54,94.82,94.82s-42.54,94.82-94.82,94.82-94.82-42.54-94.82-94.82S132.71-16.11,185-16.11M185-17.11c-52.92,0-95.82,42.9-95.82,95.82s42.9,95.82,95.82,95.82,95.82-42.9,95.82-95.82S237.92-17.11,185-17.11h0Z"/>
  <ellipse class="cls-2" cx="185" cy="69.22" rx="100" ry="68.29"/>
</svg>