<?xml version="1.0" encoding="UTF-8"?>
<svg id="_2" data-name="2" xmlns="http://www.w3.org/2000/svg" viewBox="0 0 385.95 540.63">
  <defs>
    <style>
      .cls-1 {
        fill: #e690bc;
      }
    </style>
  </defs>
  <path class="cls-1" d="M360.11,456.28c7.46-21.16,9.96-46.25,2.64-75.62-20.16-80.89-93.7-101.43-141.26-135.94-17.2-12.47-26.92-28.96-30.38-48.35,0,0-5.27-27.86,3.02-45.13,8.54-17.77,30.06-34.58,41.23-58.61,28.09-60.45,20.74-96.94-27.39-74.16-49.36,23.4-64.39,101.82-64.39,101.82,0,0,.62,3.03-2.48,7.17-4.88,6.52-18.29,1.53-5.56-59.03,8.55-40.66-15.58-106.54-55.88-40.14-20.38,33.55,5.81,102.4,5.81,102.4,0,0-30.92,11.47-54.14,36.33C-3.68,204.54.98,225.06,5.06,243.05c8.74,38.51,55.78,12,64.15,90.85,3.2,30.13-14.15,114.67-30.68,124.29-16.53,9.63-10.07,31.91-10.07,31.91l61.19,11.24s14.33-61.44,30.26-48c28.41,23.95,56.03,25.89,32.1,29.93-23.93,4.03-26.39,28.9-26.39,28.9l155.05,28.48c6.83-2.72,23.69-11.73,40.72-27.27,5.27,6.63,12.74,11.54,21.72,13.19,19.73,3.62,38.64-9.43,42.26-29.14,3.37-18.35-7.79-35.86-25.25-41.12Z"/>
</svg>