<?xml version="1.0" encoding="UTF-8"?>
<svg id="_2" data-name="2" xmlns="http://www.w3.org/2000/svg" viewBox="0 0 520.37 592.2">
  <defs>
    <style>
      .cls-1 {
        fill: #e690bc;
      }
    </style>
  </defs>
  <path class="cls-1" d="M519.74,421.12c-29.14-12.61-119.27-54.15-185-111.2,54.32-4.31,129.67-11.12,147.9-16.96,29.29-9.39,26.83-37.98,21.78-49.18-3.61-8.01-41.8-74.96-72.78-101.81-12.33-10.69-34.62-15.39-47.92-1.52-26.05,27.15-66.46,71.31-88.24,95.21-8.55-14.52-23.69-24.23-52.61-20.01-29.45,4.3-41.11,18.34-44.94,35.1-25.06-15.46-77.19-47.4-111.54-66.89-16.72-9.49-36.73,1.39-45.49,15.16C18.87,233.6,1.43,308.68.25,317.38c-1.64,12.17,4.17,40.28,34.93,40.9,18.81.38,92.22-14.33,146.45-25.82-46.68,73.37-121.05,138.85-145.36,159.24-5.06,4.25-1.69,8.62,1.88,9.2,3.57.58,63.52,17.13,63.52,17.13,3.5.95,6.35,3.49,7.68,6.86,0,0,23.11,59.52,25.43,64.3,2.32,4.78,7.76,3.1,9.84.23,76.23-105.4,103.22-200.8,112.68-250.13,1.18-.09,2.37-.17,3.56-.34s2.34-.44,3.5-.69c23.17,44.56,76.31,128.27,179.49,207.47,2.81,2.15,8.51,2.21,9.36-3.03.85-5.24,5.98-68.89,5.98-68.89.31-3.62,2.31-6.87,5.4-8.77,0,0,52.72-33,55.97-34.57,3.25-1.57,5.24-6.72-.83-9.35Z"/>
</svg>